<svg id="Layer_1" data-name="Layer 1" xmlns="http://www.w3.org/2000/svg" viewBox="0 0 1217.36 492.37"><defs><style>.cls-1{fill:#27bada;}.cls-2{fill:#f06a51;}.cls-3{fill:#fff;}</style></defs><title>LOGO</title><path class="cls-1" d="M190.26,208.54C181,218.92,155.68,242,115.91,242a105.29,105.29,0,0,1-41.49-8.65c-53.6-24.2-56.2-83.28-56.2-99.41,0-12.4,1.44-44.38,24.79-72.62,9.22-11.53,32.27-35.16,73.77-35.16,27.37,0,53.88,11.24,71.75,31.7a108,108,0,0,1,12,17.29,4,4,0,0,1-1.73,5.66L166.19,97a4.1,4.1,0,0,1-5.42-1.74,59.36,59.36,0,0,0-4.8-7.72c-3.75-5.47-16.14-19.59-36.89-19.59A44.83,44.83,0,0,0,88.25,80c-8.36,7.78-19.31,24.78-19.31,52.73a97,97,0,0,0,.87,13.84c3.45,27.95,15.56,40.63,26.79,47,3.75,2.3,11.53,5.76,22.48,5.76,25.14,0,36.63-17.23,42.16-26.65a4.09,4.09,0,0,1,5.37-1.58l32.82,16.65a4.09,4.09,0,0,1,1.54,5.92C196.23,200.75,192.72,205.59,190.26,208.54Z"/><path class="cls-1" d="M257.73,169.93a4.07,4.07,0,0,0-4.09,4.23,27.9,27.9,0,0,0,.59,4.7c3.46,17.58,15.85,28.53,33.71,28.53a41.74,41.74,0,0,0,14.41-2.6c11.92-4.12,18.55-14.62,21.78-20.63a4.08,4.08,0,0,1,5.47-1.7l25.7,13.3a4.07,4.07,0,0,1,1.48,6,148,148,0,0,1-10,13.17c-22.19,24.5-51,26.51-62.24,26.51a91.08,91.08,0,0,1-27.09-4c-33.43-10.38-49-39.77-49-73.77,0-9.22.58-37.18,19.31-58.79,9.22-10.37,25.07-23.92,57.92-23.92,10.09,0,40.05,1.16,58.79,27.38,14.68,20.16,16.25,46.13,16.59,57.47a4.08,4.08,0,0,1-4.08,4.2Zm41.17-54.47a29.53,29.53,0,0,0-13.55-2.88c-17.58,0-25.64,13-28,18.16a42.74,42.74,0,0,0-2.25,6.33,4.1,4.1,0,0,0,3.94,5.19h51.6a4.08,4.08,0,0,0,4-4.74C313.62,130.85,310.46,120.58,298.9,115.46Z"/><path class="cls-1" d="M564.21,359.22c-17,47.55-70.6,50.72-82.13,50.72-8.93,0-42.94-1.44-66-24.5-19.59-19.59-20.17-44.66-20.17-70V255.53a4.08,4.08,0,0,1,4.08-4.08h43.13a4.08,4.08,0,0,1,4.08,4.08v73.15c0,18.15,1.44,25.07,9.51,31.41,10.09,7.78,23.63,7.78,27.09,7.78,9.51,0,17.87-1.16,25.07-7.5,9.51-8.35,9.8-20.46,9.8-32V255.53a4.08,4.08,0,0,1,4.08-4.08H565.6a4.08,4.08,0,0,1,4.08,4.08v59.89C569.68,330.4,569.11,345.1,564.21,359.22Z"/><path class="cls-1" d="M720.49,381.12c-8.36,12.68-18.73,19.31-23.63,21.61s-13.83,5.48-28,5.48c-13.2,0-21-3.2-30.74-8.93A4.08,4.08,0,0,0,632,402.8v50.6a4.09,4.09,0,0,1-4.08,4.09H591.15a4.09,4.09,0,0,1-4.08-4.09V255.53a4.08,4.08,0,0,1,4.08-4.08h31.39a4.07,4.07,0,0,1,4.08,4l0,4.45a4,4,0,0,0,6.44,3.14l.09-.07c5.48-4.61,17.29-11.52,35.74-11.52,8.64,0,28.81,1.44,45.24,19,15.27,16.13,20.17,38.32,20.17,59.36C734,355.47,726,372.48,720.49,381.12ZM681.3,292.37A27.34,27.34,0,0,0,668,283.72a21.1,21.1,0,0,0-6.34-.86c-16.42,0-31.7,15-31.7,47.54,0,3.17-.57,21.33,7.78,33.72a29,29,0,0,0,8.65,8.07,25.61,25.61,0,0,0,14.12,4c15.27,0,21.32-11,23.92-15.56,3.46-6.34,7.2-15.27,7.2-31.41C691.67,324.93,692.25,305.33,681.3,292.37Z"/><path class="cls-2" d="M601.53,234.77,516,149.2a4.82,4.82,0,0,1,0-6.81l83.9-84.33a2.8,2.8,0,0,0-2.09-4.78l-53.09,1.94a2.84,2.84,0,0,0-1.88.82l-56.59,56.59a4.83,4.83,0,0,1-6.82,0L422.8,56a2.82,2.82,0,0,0-1.88-.82l-53.09-1.94a2.8,2.8,0,0,0-2.09,4.78l83.91,84.33a4.83,4.83,0,0,1,0,6.81l-85.56,85.57a2.8,2.8,0,0,0,2,4.78l52.38-.15a2.74,2.74,0,0,0,1.91-.82l59-59.31a4.82,4.82,0,0,1,6.84,0l59,59.31a2.76,2.76,0,0,0,1.92.82l52.37.15A2.8,2.8,0,0,0,601.53,234.77Z"/><path class="cls-2" d="M1171.17,282.61s43.73-86.71-2.19-141.7-136.28-23.1-151.78-20.18-20.62-4.38-20.62-4.38c-5.7-5.82-38.61-111-124.1-86s-98.31,122-98.31,122C740,405,974.21,461.15,974.21,461.15s32.9,11.85,130.72-81.59C1104.93,379.56,1144,339.2,1171.17,282.61Z"/><path class="cls-3" d="M1083.05,235.74a101.23,101.23,0,0,0-26-39.32h0a12.11,12.11,0,0,0-16.65,0l-39.25,37.65a4.92,4.92,0,0,1-5.74.76,49.23,49.23,0,0,0-8.63-3.61,43.46,43.46,0,0,0-24.08-.63,47.28,47.28,0,0,0-21.81,12.85l-16.72,16.72a5.16,5.16,0,0,0,0,7.34l20.61,20.21a3.6,3.6,0,0,0,5.07,0l4.24-4.24a3.61,3.61,0,0,0-.07-5.17l-7-6.62a3.62,3.62,0,0,1-.07-5.17l7.77-7.77a33,33,0,0,1,13.53-8.59,24.72,24.72,0,0,1,14.2-.23,29.84,29.84,0,0,1,13,8,29.48,29.48,0,0,1,7.94,13,24.34,24.34,0,0,1-.32,14.16,33.46,33.46,0,0,1-8.59,13.46l-8.13,8.13a3.6,3.6,0,0,1-5,.07L974.22,300a3.61,3.61,0,0,0-5,.07l-3.86,3.86a3.6,3.6,0,0,0,0,5.12l20.49,20.2a5.16,5.16,0,0,0,7.29,0l16.67-16.77a47.22,47.22,0,0,0,12.84-21.81,43.44,43.44,0,0,0-.59-24.05,48.07,48.07,0,0,0-4.2-9.7,5,5,0,0,1,.82-6l19-18.32a12.07,12.07,0,0,1,19.11,3.24,73,73,0,0,1,3.49,8.14,74,74,0,0,1,4,23.85c.29,16.64-5.88,32.39-11.28,44.25-6.91,15.18-16.39,31.06-29,48.52A439.29,439.29,0,0,1,981,412a12.1,12.1,0,0,1-17.28,0A431.19,431.19,0,0,1,931.41,375c-15.66-20.07-27.67-38.55-36.69-56.5-6.12-12.17-10.26-23.17-12.64-33.62a77.56,77.56,0,0,1-1.43-24.17c1.33-15.6,7.39-29.22,18.53-41.62a87.58,87.58,0,0,1,26-19.78,5.05,5.05,0,0,1,6,1.09A49.26,49.26,0,0,0,977,215.2c22.41-4.56,38.68-24.66,38.72-47.8a47.81,47.81,0,0,0-2.83-16.62,48.71,48.71,0,0,0-68-27.08,48.37,48.37,0,0,0-24.34,28.8A49.2,49.2,0,0,0,918.42,172a5,5,0,0,1-2.71,4.95,112,112,0,0,0-34.55,26c-14.58,16.24-22.86,35-24.63,55.74a101.43,101.43,0,0,0,1.94,31.62c2.83,12.37,7.61,25.17,14.62,39.11,9.74,19.38,22.58,39.18,39.23,60.52a431.63,431.63,0,0,0,44.77,49.62c1.62,1.52,3.24,2.95,4.95,4.46l2.46,2.18a12.1,12.1,0,0,0,16.48-.33l2.13-2.05c1.4-1.37,2.75-2.68,4.11-4,20-18.88,38.47-40.19,56.44-65.14,13.53-18.78,23.79-36,31.37-52.64,6.46-14.18,13.82-33.22,13.45-54.71A97.54,97.54,0,0,0,1083.05,235.74Zm-139.45-76a24.5,24.5,0,0,1,46.5-.84,23.41,23.41,0,0,1,1.42,8.27v.11c0,11.52-8.32,21.9-19.34,24.14a24.66,24.66,0,0,1-28.58-31.68Z"/></svg>